<svg xmlns="http://www.w3.org/2000/svg" width="44.804" height="30.492" viewBox="0 0 44.804 30.492"><path d="M37.29,12.929a.932.932,0,0,0-.513,1.791c4.261,1.22,6.9,2.982,6.9,4.609,0,1.191-1.443,2.5-3.97,3.583a37.9,37.9,0,0,1-11.1,2.469l-3.825-.048h-.01a.922.922,0,0,0-.93.92.938.938,0,0,0,.92.949l3.873.048h.1a39.8,39.8,0,0,0,11.717-2.614c4.212-1.82,5.1-3.883,5.1-5.3-.019-2.614-2.953-4.89-8.269-6.41Zm0,0" transform="translate(-0.756 -0.408)" fill="#fff"/><path d="M9.31,11.643a.93.93,0,1,0,0,1.859h3.835v3.854H9.31a.93.93,0,1,0,0,1.859h4.774a.93.93,0,0,0,.93-.93V6.85a.93.93,0,0,0-.93-.93H9.31a.93.93,0,1,0,0,1.859h3.835v3.854H9.31Zm0,0" transform="translate(-0.265 -0.188)" fill="#fff"/><path d="M18.17,19.234h5.723a.93.93,0,0,0,.93-.93V12.582a.93.93,0,0,0-.93-.93H19.1V7.779h3.835a.93.93,0,0,0,0-1.859H18.17a.93.93,0,0,0-.93.93V18.3a.938.938,0,0,0,.93.939ZM19.1,13.5h3.854v3.854H19.1Zm0,0" transform="translate(-0.546 -0.188)" fill="#fff"/><path d="M28.02,19.234h5.723a.93.93,0,0,0,.93-.93V6.85a.93.93,0,0,0-.93-.93H28.02a.93.93,0,0,0-.93.93V18.3a.938.938,0,0,0,.93.939Zm.939-11.455h3.854v9.577H28.959Zm0,0" transform="translate(-0.858 -0.188)" fill="#fff"/><path d="M17.062,21.78a.934.934,0,0,0-1.423,1.21l2.082,2.469a40.437,40.437,0,0,1-11.329-2.3c-2.886-1.133-4.532-2.527-4.532-3.815,0-1.491,2.217-3.108,5.926-4.309a.931.931,0,1,0-.571-1.772A16.565,16.565,0,0,0,2.13,15.737,4.617,4.617,0,0,0,0,19.34c0,2.159,1.975,4.077,5.713,5.548a41.819,41.819,0,0,0,11.591,2.4l-1.859,2.063a.925.925,0,0,0,.068,1.317.9.9,0,0,0,.629.242.949.949,0,0,0,.7-.31l3.4-3.767a.947.947,0,0,0,.242-.629v-.068a.9.9,0,0,0-.223-.6Zm0,0" transform="translate(0 -0.419)" fill="#fff"/><path d="M36.72,5.684h3.815a.93.93,0,0,0,.93-.93V.93a.93.93,0,0,0-.93-.93H36.72a.93.93,0,0,0-.93.93V4.745a.932.932,0,0,0,.93.939Zm.939-3.815h1.946V3.815H37.659Zm0,0" transform="translate(-1.134)" fill="#fff"/></svg>