<svg id="Group_367" data-name="Group 367" xmlns="http://www.w3.org/2000/svg" width="22.92" height="23" viewBox="0 0 22.92 23">
  <path id="Path_599" data-name="Path 599" d="M17.965,7.2a1.195,1.195,0,0,0,0,2.39,3.758,3.758,0,0,1,3.41,2.135,1.188,1.188,0,0,0,1.075.67,1.237,1.237,0,0,0,.525-.12,1.2,1.2,0,0,0,.55-1.6A6.14,6.14,0,0,0,17.965,7.2Zm0,0" transform="translate(-8.385 -3.6)" fill="#fff"/>
  <path id="Path_600" data-name="Path 600" d="M22.455,20.035l-3.99-3.99A10.184,10.184,0,1,0,16.4,18.21l3.945,3.945a1.508,1.508,0,0,0,1.06.44,1.468,1.468,0,0,0,1.055-.44,1.5,1.5,0,0,0,0-2.12Zm-20.06-9.86a7.78,7.78,0,1,1,13.935,4.74,7.786,7.786,0,0,1-6.155,3.035,7.781,7.781,0,0,1-7.78-7.775Zm0,0" fill="#fff"/>
  <rect id="Rectangle_58" data-name="Rectangle 58" width="22.92" height="23" fill="none"/>
</svg>
