<svg xmlns="http://www.w3.org/2000/svg" width="24.121" height="24.121" viewBox="0 0 24.121 24.121">
  <g id="Icon_eye-off" transform="translate(0.061 0.061)">
    <g id="Group_2363" data-name="Group 2363" transform="translate(-0.061 -0.061)">
      <path id="Path_891" data-name="Path 891" d="M17.94,17.94A10.07,10.07,0,0,1,12,20C5,20,1,12,1,12A18.45,18.45,0,0,1,6.06,6.06M9.9,4.24A9.12,9.12,0,0,1,12,4c7,0,11,8,11,8a18.5,18.5,0,0,1-2.16,3.19m-6.72-1.07A3,3,0,1,1,9.88,9.88" transform="translate(0.061 0.061)" fill="none" stroke="#5a5a5a" stroke-linecap="round" stroke-linejoin="round" stroke-width="1.5"/>
      <line id="Line_153" data-name="Line 153" x2="22" y2="22" transform="translate(1.061 1.061)" fill="none" stroke="#5a5a5a" stroke-linecap="round" stroke-linejoin="round" stroke-width="1.5"/>
    </g>
    <rect id="rectangle" width="24" height="24" fill="rgba(255,7,7,0.1)" opacity="0"/>
  </g>
</svg>
